<?xml version="1.0" encoding="UTF-8"?>
<svg width="156px" height="30px" viewBox="0 0 156 30" version="1.1" xmlns="http://www.w3.org/2000/svg" xmlns:xlink="http://www.w3.org/1999/xlink">
    <!-- Generator: Sketch 51.3 (57544) - http://www.bohemiancoding.com/sketch -->
    <title>Luminex_logo</title>
    <desc>Created with Sketch.</desc>
    <defs></defs>
    <g id="Page-1" stroke="none" stroke-width="1" fill="none" fill-rule="evenodd">
        <g id="Luminex_logo" transform="translate(0.000000, -1.000000)" fill-rule="nonzero">
            <path d="M36.769,25.678 L36.769,8.883 L42.639,8.883 L42.639,30.241 L31.071,30.241 C29.7685799,30.2806732 28.4662752,30.1584037 27.194,29.877 C26.2889072,29.6313521 25.4577136,29.1678612 24.773,28.527 C23.2736667,27.1703333 22.524,24.9996667 22.524,22.015 L22.524,8.883 L28.393,8.883 L28.393,22.615 C28.344957,23.4334616 28.6134886,24.2390565 29.143,24.865 C29.6846003,25.4252112 30.442994,25.7222913 31.221,25.679 L36.769,25.678 Z" id="Path_12" fill="#161615"></path>
            <path d="M46.262,8.883 L67.855,8.883 C69.3631572,8.83453621 70.8713349,8.97870026 72.343,9.312 C73.3248782,9.57381835 74.2124864,10.1084636 74.903,10.854 C76.2628067,12.4638732 76.9529214,14.5342175 76.831,16.638 L76.831,30.238 L70.961,30.238 L70.961,17.559 C70.9843783,16.8421796 70.9378248,16.1247872 70.822,15.417 C70.7211439,15.0043212 70.5099382,14.6268471 70.211,14.325 C69.4411015,13.6807305 68.4485788,13.365336 67.448,13.447 L64.32,13.447 L64.32,30.247 L58.45,30.247 L58.45,13.447 L52.131,13.447 L52.131,30.247 L46.262,30.247 L46.262,8.883 Z" id="Path_13" fill="#161615"></path>
            <path d="M89.764,8.883 L101.096,8.883 C102.398787,8.84380952 103.701404,8.96641271 104.974,9.248 C105.878873,9.49366018 106.709988,9.95676421 107.395,10.597 C108.894333,11.9543333 109.643667,14.118 109.643,17.088 L109.643,30.241 L103.774,30.241 L103.774,16.425 C103.851998,15.6009689 103.597863,14.77989 103.068,14.144 C102.417162,13.6184063 101.587039,13.3672887 100.754,13.444 L95.634,13.444 L95.634,30.244 L89.764,30.244 L89.764,8.883 Z" id="Path_14" fill="#161615"></path>
            <path d="M131.442,17.259 L131.442,21.825 L119.061,21.825 C119.053272,22.9693062 119.550945,24.0586966 120.421,24.802 C121.582608,25.4822615 122.92521,25.789112 124.267,25.681 L131.444,25.681 L131.444,30.244 L123.624,30.244 C122.228472,30.2789434 120.834516,30.1276093 119.479,29.794 C118.380242,29.4763068 117.351725,28.9530563 116.448,28.252 C113.862667,26.252 112.570333,23.267 112.571,19.297 C112.515314,16.8784624 113.236241,14.5057453 114.628,12.527 C115.472113,11.2938728 116.644738,10.3218236 118.013,9.721 C119.669475,9.10522382 121.430951,8.82149836 123.197,8.886 L131.445,8.886 L131.445,13.449 L123.625,13.449 C122.441402,13.3372989 121.254375,13.623762 120.252,14.263 C119.48542,15.0733976 119.059724,16.1474825 119.063,17.263 L131.442,17.259 Z" id="Path_15" fill="#161615"></path>
            <polygon id="Path_16" fill="#161615" points="141.347 19.68 133.635 8.88 140.212 8.88 144.712 15.199 149.082 8.88 156.002 8.88 148.011 19.68 156.002 30.241 149.082 30.241 144.712 24.136 140.212 30.241 133.312 30.241"></polygon>
            <path d="M84.771,1.097 C84.3942903,1.02083948 84.0102089,0.987295254 83.626,0.997 L80.28,0.997 L80.28,4.506 C80.2219351,5.1549023 80.4670296,5.79421514 80.944,6.238 C81.1513373,6.41160115 81.3960656,6.53482098 81.659,6.598 C82.0357097,6.67416052 82.4197911,6.70770475 82.804,6.698 L86.15,6.698 L86.15,3.189 C86.2080649,2.5400977 85.9629704,1.90078486 85.486,1.457 C85.2784436,1.28373224 85.0337971,1.16055355 84.771,1.097 Z" id="Path_17" fill="#C3CC00"></path>
            <path d="M20.465,25.453 C20.2754864,25.2946426 20.0520434,25.1820657 19.812,25.124 C19.4677508,25.0553656 19.1168962,25.0255128 18.766,25.035 L15.096,25.035 C13.1702573,25.1526097 11.2397562,24.9017939 9.408,24.296 C8.32404245,23.7970428 7.59189465,22.7540091 7.491,21.565 C7.391,20.8796667 7.298,19.4943333 7.212,17.409 L7.212,3.631 L0.996,3.631 L0.996,17.409 C0.931787883,19.471243 1.10424752,21.5340482 1.51,23.557 C2.24348561,26.5899896 4.60653784,28.9611411 7.637,29.705 C9.87877768,30.1502274 12.1652025,30.3297984 14.449,30.24 L17.949,30.24 L18.008,30.24 L21.065,30.24 L21.065,27.034 C21.1192638,26.4427052 20.8979004,25.8594128 20.465,25.453 Z" id="Path_18" fill="#161615"></path>
            <path d="M82.535,8.883 C81.8705209,8.82317583 81.2146637,9.06728409 80.751,9.547 C80.5730778,9.75301195 80.4460023,9.9979149 80.38,10.262 C80.3026052,10.6385306 80.2690486,11.0227535 80.28,11.407 L80.28,30.241 L86.15,30.241 L86.15,8.883 L82.535,8.883 Z" id="Path_19" fill="#161615"></path>
        </g>
    </g>
</svg>